[center][img]http://img847.imageshack.us/img847/6562/wayback.jpg[/img]



[img]http://leetleech.org/images/48874973695367351744.png[/img]


Format                           : AVI
Format/Info                      : Audio Video Interleave
File size                        : 1.38 GiB
Duration                         : 2h 7mn
Overall bit rate                 : 1 550 Kbps
Writing library                  : VirtualDub build 32839/release

Video
ID                               : 0
Format                           : MPEG-4 Visual
Format profile                   : Advanced Simple@L5
Format settings, BVOP            : Yes
Format settings, QPel            : No
Format settings, GMC             : No warppoints
Format settings, Matrix          : Custom
Codec ID                         : XVID
Codec ID/Hint                    : XviD
Duration                         : 2h 7mn
Bit rate                         : 1 409 Kbps
Width                            : 626 pixels
Height                           : 480 pixels
Display aspect ratio             : 4:3
Frame rate                       : 29.970 fps
Color space                      : YUV
Chroma subsampling               : 4:2:0
Bit depth                        : 8 bits
Scan type                        : Progressive
Bits/(Pixel*Frame)               : 0.156
Stream size                      : 1.25 GiB (91%)
Writing library                  : XviD 1.2.1 (UTC 2008-12-04)

Audio
ID                               : 1
Format                           : MPEG Audio
Format version                   : Version 1
Format profile                   : Layer 3
Mode                             : Joint stereo
Mode extension                   : MS Stereo
Codec ID                         : 55
Codec ID/Hint                    : MP3
Duration                         : 2h 7mn
Bit rate mode                    : Constant
Bit rate                         : 128 Kbps
Channel(s)                       : 2 channels
Sampling rate                    : 44.1 KHz
Stream size                      : 117 MiB (8%)
Alignment                        : Aligned on interleaves
Interleave, duration             : 26 ms (0.78 video frame)
Interleave, preload duration     : 522 ms
Writing library                  : LAME3.98.2




[url]http://www.imdb.com/title/tt1023114/[/url]




[IMG]http://leetleech.org/images/89524873606771859129.png[/IMG]


Users: 7.5/10 (2,826 votes) 43 reviews | Critics: 110 reviews Metascore: 66/100 (based on 33 reviews from Metacritic.com)

Siberian gulag escapees walk 4000 miles overland to freedom in India.
Director:
Peter Weir
Writers:
Peter Weir (screenplay), Keith R. Clarke (screenplay), and 1 more credit »
Stars:
Jim Sturgess, Ed Harris and Colin Farrell 



[img]http://leetleech.org/images/95521316153253938506.png[/img]




[img]http://img25.imageshack.us/img25/1125/vlcsnap2011030718h14m39.png[/img]

[img]http://img638.imageshack.us/img638/6761/vlcsnap2011030718h14m22.png[/img]

[img]http://img84.imageshack.us/img84/1647/vlcsnap2011030718h13m17.png[/img]


Source Used

IFLIX PPV .................... Thanks 

Cropped out black borders ,resized a touch ran a denoise filter ,increase in contrast a touch and saturation ...Still some noise in action scenes ......

Enjoy 




Greetz to Imagine ,Flawl3ss ,Santi ,Vision ,Kingdom, BDK, TOXiCiNK, THC, Ez, Rx,





[img]http://img411.imageshack.us/img411/6898/sig1n.jpg[/img]





[/center]